<?xml version="1.0" encoding="UTF-8"?><svg id="Layer_1" xmlns="http://www.w3.org/2000/svg" viewBox="0 0 2000 2000"><defs><style>.cls-1{fill:#fff;}</style></defs><polygon class="cls-1" points="785.61 799.67 785.61 924.68 1073.97 1200.11 1082.59 1191.48 1082.59 1071.01 794.23 799.67 785.61 799.67"/><polygon class="cls-1" points="1270.09 795.58 1261.46 803.98 1261.46 1195.79 1270.09 1204.42 1351.99 1204.42 1364.69 1191.48 1364.69 885.88 1270.09 795.58"/><polygon class="cls-1" points="949.19 803.98 949.19 924.68 1237.55 1195.79 1246.17 1195.79 1246.17 1071.01 957.81 795.58 949.19 803.98"/><path class="cls-1" d="M635.31,796.04v399.3l8.62,8.62h73.05v-.66l186.86-30.29,30.26,30.94h109.13l4.31-4.31-407.92-403.61h-4.31Zm192.78,299.27l-111.1,26.03v-140.62l111.1,114.59Z"/></svg>